<svg width="240" height="36" viewBox="0 0 240 36" fill="none" xmlns="http://www.w3.org/2000/svg">
<path d="M26.744 1.016C26.616 2.52 26.52 3.976 26.456 5.384C26.424 6.792 26.408 7.864 26.408 8.6C26.408 9.24 26.424 9.864 26.456 10.472C26.488 11.08 26.52 11.576 26.552 11.96H25.448C25.096 9.464 24.52 7.496 23.72 6.056C22.952 4.616 21.992 3.608 20.84 3.032C19.72 2.424 18.472 2.12 17.096 2.12H15.8C14.936 2.12 14.264 2.2 13.784 2.36C13.336 2.488 13.032 2.776 12.872 3.224C12.744 3.672 12.68 4.376 12.68 5.336V30.68C12.68 31.608 12.744 32.312 12.872 32.792C13.032 33.24 13.336 33.544 13.784 33.704C14.264 33.832 14.936 33.896 15.8 33.896H17.768C19.016 33.896 20.2 33.576 21.32 32.936C22.472 32.264 23.496 31.144 24.392 29.576C25.288 27.976 25.96 25.816 26.408 23.096H27.512C27.416 24.184 27.368 25.592 27.368 27.32C27.368 28.088 27.384 29.176 27.416 30.584C27.448 31.992 27.544 33.464 27.704 35C26.072 34.936 24.232 34.904 22.184 34.904C20.136 34.872 18.312 34.856 16.712 34.856C15.88 34.856 14.824 34.856 13.544 34.856C12.264 34.856 10.872 34.872 9.368 34.904C7.864 34.904 6.344 34.92 4.808 34.952C3.272 34.952 1.832 34.968 0.488 35V34.04C1.48 33.976 2.216 33.848 2.696 33.656C3.208 33.464 3.544 33.08 3.704 32.504C3.896 31.928 3.992 31.064 3.992 29.912V6.104C3.992 4.92 3.896 4.056 3.704 3.512C3.544 2.936 3.208 2.552 2.696 2.36C2.216 2.136 1.48 2.008 0.488 1.976V1.016C1.864 1.048 3.304 1.08 4.808 1.112C6.344 1.112 7.848 1.128 9.32 1.16C10.824 1.16 12.216 1.16 13.496 1.16C14.808 1.16 15.88 1.16 16.712 1.16C18.184 1.16 19.848 1.16 21.704 1.16C23.592 1.128 25.272 1.08 26.744 1.016ZM19.496 17.432C19.496 17.432 19.496 17.592 19.496 17.912C19.496 18.232 19.496 18.392 19.496 18.392H11.24C11.24 18.392 11.24 18.232 11.24 17.912C11.24 17.592 11.24 17.432 11.24 17.432H19.496ZM20.888 11.096C20.76 12.92 20.696 14.312 20.696 15.272C20.728 16.232 20.744 17.112 20.744 17.912C20.744 18.712 20.76 19.592 20.792 20.552C20.824 21.512 20.904 22.904 21.032 24.728H19.928C19.768 23.576 19.432 22.52 18.92 21.56C18.408 20.6 17.72 19.832 16.856 19.256C15.992 18.68 14.936 18.392 13.688 18.392V17.432C14.616 17.432 15.432 17.24 16.136 16.856C16.84 16.44 17.432 15.912 17.912 15.272C18.424 14.632 18.84 13.944 19.16 13.208C19.48 12.472 19.688 11.768 19.784 11.096H20.888ZM47.3649 1.016V1.976C46.2769 2.008 45.4449 2.136 44.8689 2.36C44.3249 2.552 43.9569 2.936 43.7649 3.512C43.5729 4.056 43.4769 4.92 43.4769 6.104V30.68C43.4769 31.608 43.5409 32.312 43.6689 32.792C43.8289 33.24 44.1009 33.544 44.4849 33.704C44.8689 33.832 45.4449 33.896 46.2129 33.896H48.1809C49.1409 33.896 50.1009 33.608 51.0609 33.032C52.0209 32.456 52.9169 31.656 53.7489 30.632C54.5809 29.576 55.3009 28.376 55.9089 27.032C56.5169 25.656 56.9489 24.184 57.2049 22.616H58.3089C58.2129 23.736 58.1649 25.176 58.1649 26.936C58.1649 27.736 58.1809 28.888 58.2129 30.392C58.2449 31.864 58.3409 33.4 58.5009 35C56.8689 34.936 55.0289 34.904 52.9809 34.904C50.9329 34.872 49.1089 34.856 47.5089 34.856C46.6769 34.856 45.6209 34.856 44.3409 34.856C43.0609 34.856 41.6689 34.872 40.1649 34.904C38.6609 34.904 37.1409 34.92 35.6049 34.952C34.0689 34.952 32.6289 34.968 31.2849 35V34.04C32.2769 33.976 33.0129 33.848 33.4929 33.656C34.0049 33.464 34.3409 33.08 34.5009 32.504C34.6929 31.928 34.7889 31.064 34.7889 29.912V6.104C34.7889 4.92 34.6929 4.056 34.5009 3.512C34.3409 2.936 34.0049 2.552 33.4929 2.36C33.0129 2.136 32.2769 2.008 31.2849 1.976V1.016C32.1489 1.048 33.3009 1.08 34.7409 1.112C36.1809 1.144 37.7169 1.16 39.3489 1.16C40.8529 1.16 42.3249 1.144 43.7649 1.112C45.2049 1.08 46.4049 1.048 47.3649 1.016ZM78.9088 0.343997C82.4288 0.343997 85.5008 1.032 88.1248 2.408C90.7488 3.784 92.7808 5.768 94.2208 8.36C95.6928 10.92 96.4288 14.04 96.4288 17.72C96.4288 21.304 95.6768 24.44 94.1728 27.128C92.7008 29.816 90.6368 31.912 87.9808 33.416C85.3248 34.92 82.2848 35.672 78.8608 35.672C75.3728 35.672 72.3008 34.984 69.6448 33.608C67.0208 32.232 64.9728 30.248 63.5008 27.656C62.0608 25.064 61.3408 21.944 61.3408 18.296C61.3408 14.712 62.0928 11.576 63.5968 8.888C65.1328 6.2 67.2128 4.104 69.8368 2.6C72.4608 1.096 75.4848 0.343997 78.9088 0.343997ZM78.7168 1.208C77.0208 1.208 75.5488 1.928 74.3008 3.368C73.0528 4.808 72.0768 6.792 71.3728 9.32C70.7008 11.848 70.3648 14.776 70.3648 18.104C70.3648 21.496 70.7488 24.456 71.5168 26.984C72.3168 29.48 73.3728 31.416 74.6848 32.792C75.9968 34.136 77.4528 34.808 79.0528 34.808C80.7488 34.808 82.2208 34.088 83.4688 32.648C84.7488 31.208 85.7248 29.224 86.3968 26.696C87.0688 24.136 87.4048 21.208 87.4048 17.912C87.4048 14.488 87.0208 11.528 86.2528 9.032C85.4848 6.536 84.4288 4.616 83.0848 3.272C81.7728 1.896 80.3168 1.208 78.7168 1.208ZM131.553 1.016V1.976C130.593 2.136 129.857 2.44 129.345 2.888C128.833 3.336 128.481 4.024 128.289 4.952C128.129 5.88 128.049 7.192 128.049 8.888V35.048C127.633 34.984 127.185 34.952 126.705 34.952C126.225 34.952 125.713 34.984 125.169 35.048L104.097 10.232V26.36C104.097 28.312 104.193 29.816 104.385 30.872C104.577 31.896 105.009 32.632 105.681 33.08C106.353 33.528 107.409 33.848 108.849 34.04V35C108.241 34.936 107.425 34.904 106.401 34.904C105.409 34.872 104.465 34.856 103.569 34.856C102.865 34.856 102.129 34.872 101.361 34.904C100.625 34.904 100.001 34.936 99.4891 35V34.04C100.513 33.848 101.265 33.544 101.745 33.128C102.257 32.68 102.593 31.992 102.753 31.064C102.913 30.104 102.993 28.792 102.993 27.128V6.104C102.993 4.92 102.913 4.056 102.753 3.512C102.593 2.936 102.257 2.552 101.745 2.36C101.233 2.136 100.481 2.008 99.4891 1.976V1.016C100.001 1.048 100.625 1.08 101.361 1.112C102.129 1.144 102.865 1.16 103.569 1.16C104.369 1.16 105.137 1.144 105.873 1.112C106.609 1.08 107.281 1.048 107.889 1.016L126.945 22.808V9.656C126.945 7.704 126.849 6.216 126.657 5.192C126.497 4.136 126.081 3.384 125.409 2.936C124.769 2.456 123.697 2.136 122.193 1.976V1.016C122.833 1.048 123.649 1.08 124.641 1.112C125.665 1.144 126.609 1.16 127.473 1.16C128.241 1.16 128.993 1.144 129.729 1.112C130.465 1.08 131.073 1.048 131.553 1.016ZM150.509 0.967998L162.125 30.968C162.605 32.088 163.101 32.872 163.613 33.32C164.157 33.768 164.637 34.008 165.053 34.04V35C164.029 34.936 162.797 34.904 161.357 34.904C159.949 34.872 158.509 34.856 157.037 34.856C155.501 34.856 154.045 34.872 152.669 34.904C151.293 34.904 150.189 34.936 149.357 35V34.04C150.989 33.976 152.029 33.704 152.477 33.224C152.925 32.712 152.829 31.64 152.189 30.008L144.221 8.216L145.181 6.776L138.173 24.872C137.437 26.792 136.989 28.344 136.829 29.528C136.669 30.712 136.749 31.624 137.069 32.264C137.389 32.904 137.885 33.352 138.557 33.608C139.261 33.864 140.093 34.008 141.053 34.04V35C139.933 34.936 138.893 34.904 137.933 34.904C137.005 34.872 135.997 34.856 134.909 34.856C134.269 34.856 133.613 34.872 132.941 34.904C132.301 34.904 131.741 34.936 131.261 35V34.04C131.965 33.912 132.669 33.464 133.373 32.696C134.109 31.928 134.829 30.6 135.533 28.712L146.333 0.967998C146.973 1.032 147.661 1.064 148.397 1.064C149.165 1.064 149.869 1.032 150.509 0.967998ZM153.005 21.176V22.136H138.701L139.181 21.176H153.005ZM180.997 1.016V1.976C180.005 2.008 179.253 2.136 178.741 2.36C178.229 2.552 177.893 2.936 177.733 3.512C177.573 4.056 177.493 4.92 177.493 6.104V29.912C177.493 31.064 177.573 31.928 177.733 32.504C177.925 33.08 178.261 33.464 178.741 33.656C179.253 33.848 180.005 33.976 180.997 34.04V35C180.101 34.936 178.949 34.904 177.541 34.904C176.165 34.872 174.773 34.856 173.365 34.856C171.733 34.856 170.197 34.872 168.757 34.904C167.317 34.904 166.165 34.936 165.301 35V34.04C166.293 33.976 167.029 33.848 167.509 33.656C168.021 33.464 168.357 33.08 168.517 32.504C168.709 31.928 168.805 31.064 168.805 29.912V6.104C168.805 4.92 168.709 4.056 168.517 3.512C168.357 2.936 168.021 2.552 167.509 2.36C167.029 2.136 166.293 2.008 165.301 1.976V1.016C166.165 1.048 167.317 1.08 168.757 1.112C170.197 1.144 171.733 1.16 173.365 1.16C174.773 1.16 176.165 1.144 177.541 1.112C178.949 1.08 180.101 1.048 180.997 1.016ZM200.037 1.016V1.976C198.949 2.008 198.117 2.136 197.541 2.36C196.997 2.552 196.629 2.936 196.437 3.512C196.245 4.056 196.149 4.92 196.149 6.104V30.68C196.149 31.608 196.213 32.312 196.341 32.792C196.501 33.24 196.773 33.544 197.157 33.704C197.541 33.832 198.117 33.896 198.885 33.896H200.853C201.813 33.896 202.773 33.608 203.733 33.032C204.693 32.456 205.589 31.656 206.421 30.632C207.253 29.576 207.973 28.376 208.581 27.032C209.189 25.656 209.621 24.184 209.877 22.616H210.981C210.885 23.736 210.837 25.176 210.837 26.936C210.837 27.736 210.853 28.888 210.885 30.392C210.917 31.864 211.013 33.4 211.173 35C209.541 34.936 207.701 34.904 205.653 34.904C203.605 34.872 201.781 34.856 200.181 34.856C199.349 34.856 198.293 34.856 197.013 34.856C195.733 34.856 194.341 34.872 192.837 34.904C191.333 34.904 189.813 34.92 188.277 34.952C186.741 34.952 185.301 34.968 183.957 35V34.04C184.949 33.976 185.685 33.848 186.165 33.656C186.677 33.464 187.013 33.08 187.173 32.504C187.365 31.928 187.461 31.064 187.461 29.912V6.104C187.461 4.92 187.365 4.056 187.173 3.512C187.013 2.936 186.677 2.552 186.165 2.36C185.685 2.136 184.949 2.008 183.957 1.976V1.016C184.821 1.048 185.973 1.08 187.413 1.112C188.853 1.144 190.389 1.16 192.021 1.16C193.525 1.16 194.997 1.144 196.437 1.112C197.877 1.08 199.077 1.048 200.037 1.016ZM226.205 0.391999C228.189 0.391999 229.725 0.599999 230.813 1.016C231.901 1.4 232.829 1.816 233.597 2.264C233.981 2.488 234.285 2.664 234.509 2.792C234.765 2.888 235.005 2.936 235.229 2.936C235.549 2.936 235.773 2.76 235.901 2.408C236.061 2.056 236.189 1.528 236.285 0.823999H237.389C237.357 1.464 237.309 2.216 237.245 3.08C237.213 3.944 237.181 5.096 237.149 6.536C237.149 7.944 237.149 9.816 237.149 12.152H236.045C235.917 10.424 235.517 8.76 234.845 7.16C234.173 5.56 233.245 4.232 232.061 3.176C230.909 2.12 229.485 1.592 227.789 1.592C226.317 1.592 225.101 2.008 224.141 2.84C223.181 3.64 222.701 4.792 222.701 6.296C222.701 7.512 223.005 8.568 223.613 9.464C224.221 10.328 225.133 11.208 226.349 12.104C227.597 13 229.165 14.104 231.053 15.416C232.557 16.408 233.901 17.4 235.085 18.392C236.269 19.384 237.213 20.504 237.917 21.752C238.653 23 239.021 24.504 239.021 26.264C239.021 28.376 238.445 30.136 237.293 31.544C236.141 32.92 234.621 33.96 232.733 34.664C230.845 35.336 228.781 35.672 226.541 35.672C224.461 35.672 222.797 35.48 221.549 35.096C220.333 34.712 219.293 34.312 218.429 33.896C217.725 33.448 217.181 33.224 216.797 33.224C216.477 33.224 216.237 33.4 216.077 33.752C215.949 34.104 215.837 34.632 215.741 35.336H214.637C214.701 34.536 214.733 33.608 214.733 32.552C214.765 31.464 214.781 30.072 214.781 28.376C214.813 26.68 214.829 24.52 214.829 21.896H215.933C216.061 24.072 216.413 26.104 216.989 27.992C217.597 29.88 218.509 31.416 219.725 32.6C220.973 33.752 222.621 34.328 224.669 34.328C225.821 34.328 226.829 34.136 227.693 33.752C228.557 33.368 229.245 32.808 229.757 32.072C230.269 31.304 230.525 30.376 230.525 29.288C230.525 27.944 230.221 26.776 229.613 25.784C229.005 24.792 228.173 23.864 227.117 23C226.061 22.104 224.829 21.208 223.421 20.312C221.917 19.32 220.509 18.312 219.197 17.288C217.885 16.264 216.829 15.128 216.029 13.88C215.261 12.6 214.877 11.064 214.877 9.272C214.877 7.224 215.405 5.544 216.461 4.232C217.517 2.92 218.909 1.96 220.637 1.352C222.397 0.711999 224.253 0.391999 226.205 0.391999Z" fill="url(#paint0_radial_2_24)"/>
<defs>
<radialGradient id="paint0_radial_2_24" cx="0" cy="0" r="1" gradientUnits="userSpaceOnUse" gradientTransform="translate(120 15) rotate(90) scale(32 121)">
<stop stop-color="white"/>
<stop offset="1" stop-color="#DDC2DA"/>
</radialGradient>
</defs>
</svg>
